<svg width="117" height="118" viewBox="0 0 117 118" fill="none" xmlns="http://www.w3.org/2000/svg">
<path fill-rule="evenodd" clip-rule="evenodd" d="M1.99538 15.0292C0.219238 19.3172 0.219238 24.7532 0.219238 35.6251V82.2916C0.219238 93.1635 0.219238 98.5995 1.99538 102.887C4.36356 108.605 8.90593 113.147 14.6232 115.515C18.9112 117.291 24.3472 117.291 35.2191 117.291H81.8856C92.7575 117.291 98.1935 117.291 102.481 115.515C108.199 113.147 112.741 108.605 115.109 102.887C116.885 98.5995 116.885 93.1635 116.885 82.2916V35.6251C116.885 24.7532 116.885 19.3172 115.109 15.0292C112.741 9.31194 108.199 4.76956 102.481 2.40138C98.1935 0.625244 92.7575 0.625244 81.8856 0.625244H35.2191C24.3472 0.625244 18.9112 0.625244 14.6232 2.40138C8.90593 4.76956 4.36356 9.31194 1.99538 15.0292ZM26.3525 33.4667C26.3525 37.9125 29.9566 41.5165 34.4024 41.5165H70.6273C74.3322 41.5165 77.3356 44.5199 77.3356 48.2247C77.3356 51.9296 74.3322 54.933 70.6273 54.933H34.4024C29.9566 54.933 26.3525 58.537 26.3525 62.9828V84.4491C26.3525 88.8949 29.9566 92.499 34.4024 92.499C38.8483 92.499 42.4524 88.8949 42.4524 84.4491V71.0327H70.6273C83.2239 71.0327 93.4355 60.8212 93.4355 48.2247C93.4355 35.6283 83.2239 25.4168 70.6273 25.4168H34.4024C29.9566 25.4168 26.3525 29.0209 26.3525 33.4667ZM67.2923 77.741H70.6273C76.1932 77.741 81.3993 76.2004 85.8425 73.5224L91.0777 78.7577C92.5345 80.2144 93.4355 82.227 93.4355 84.4499C93.4355 88.8958 89.8314 92.4999 85.3856 92.4999C83.1626 92.4999 81.1501 91.5989 79.6933 90.1421L67.2923 77.741Z" fill="black"/>
</svg>
